<svg width="42" height="42" viewBox="0 0 42 42" fill="none" xmlns="http://www.w3.org/2000/svg">
<path d="M37.1235 34.3984C39.2777 31.8065 40.7759 28.734 41.4915 25.4407C42.2071 22.1473 42.1189 18.7301 41.2345 15.478C40.3501 12.2259 38.6954 9.23473 36.4105 6.7574C34.1255 4.28007 31.2775 2.38952 28.1074 1.24566C24.9373 0.101807 21.5383 -0.261696 18.1979 0.185904C14.8576 0.633504 11.6742 1.87904 8.91708 3.81714C6.15993 5.75525 3.91012 8.3289 2.35799 11.3204C0.805856 14.3119 -0.00294389 17.6332 8.05147e-06 21.0034C0.00114081 25.9027 1.72763 30.6451 4.87651 34.3984L4.84651 34.4239C4.95151 34.5499 5.07151 34.6579 5.17951 34.7824C5.31451 34.9369 5.46001 35.0824 5.59951 35.2324C6.01951 35.6884 6.45151 36.1264 6.90451 36.5374C7.04251 36.6634 7.18501 36.7804 7.32451 36.9004C7.80451 37.3144 8.29801 37.7074 8.80951 38.0734C8.87551 38.1184 8.93551 38.1769 9.00151 38.2234V38.2054C12.5147 40.6776 16.7057 42.0045 21.0015 42.0045C25.2974 42.0045 29.4884 40.6776 33.0015 38.2054V38.2234C33.0675 38.1769 33.126 38.1184 33.1935 38.0734C33.7035 37.7059 34.1985 37.3144 34.6785 36.9004C34.818 36.7804 34.9605 36.6619 35.0985 36.5374C35.5515 36.1249 35.9835 35.6884 36.4035 35.2324C36.543 35.0824 36.687 34.9369 36.8235 34.7824C36.93 34.6579 37.0515 34.5499 37.1565 34.4224L37.1235 34.3984ZM21 9.00338C22.335 9.00338 23.6401 9.39927 24.7501 10.141C25.8601 10.8827 26.7253 11.9369 27.2362 13.1703C27.7471 14.4037 27.8808 15.7609 27.6203 17.0702C27.3599 18.3796 26.717 19.5823 25.773 20.5264C24.829 21.4704 23.6262 22.1132 22.3169 22.3737C21.0075 22.6341 19.6503 22.5005 18.4169 21.9896C17.1835 21.4787 16.1293 20.6135 15.3876 19.5035C14.6459 18.3935 14.25 17.0884 14.25 15.7534C14.25 13.9632 14.9612 12.2463 16.227 10.9804C17.4929 9.71454 19.2098 9.00338 21 9.00338ZM9.01051 34.3984C9.03653 32.4288 9.83693 30.5487 11.2385 29.1648C12.6402 27.7809 14.5303 27.0044 16.5 27.0034H25.5C27.4697 27.0044 29.3599 27.7809 30.7615 29.1648C32.1631 30.5487 32.9635 32.4288 32.9895 34.3984C29.6998 37.3629 25.4284 39.0035 21 39.0035C16.5716 39.0035 12.3002 37.3629 9.01051 34.3984Z" fill="#1E1E1E"/>
</svg>

