<svg width="18" height="18" viewBox="0 0 18 18" fill="none" xmlns="http://www.w3.org/2000/svg">
<path id="Vector" d="M17.4783 6.3C17.0483 5.79 16.4283 5.5 15.7583 5.5H11.7283V2.75C11.7283 1.23 10.4983 0 8.8983 0C8.1983 0 7.5683 0.42 7.2883 1.07L4.7483 7H2.8783C1.5683 7 0.508301 8.06 0.508301 9.37V15.14C0.508301 16.44 1.5783 17.5 2.8783 17.5H14.4383C15.5283 17.5 16.4583 16.72 16.6483 15.64L17.9683 8.14C18.0783 7.48 17.8983 6.81 17.4683 6.3H17.4783ZM2.8783 16C2.3983 16 2.0083 15.61 2.0083 15.14V9.37C2.0083 8.89 2.3983 8.5 2.8783 8.5H4.4883V16H2.8783ZM15.1783 15.38C15.1183 15.74 14.8083 16 14.4383 16H5.9983V7.9L8.6683 1.65C8.7083 1.56 8.7983 1.49 8.9883 1.49C9.6783 1.49 10.2283 2.05 10.2283 2.74V6.99H15.7583C15.9883 6.99 16.1883 7.08 16.3283 7.25C16.4683 7.42 16.5283 7.64 16.4883 7.87L15.1683 15.37L15.1783 15.38Z" fill="black"/>
</svg>