<svg width="32" height="31" viewBox="0 0 32 31" fill="none" xmlns="http://www.w3.org/2000/svg">
<path d="M0 26.2032C0 28.8026 2.08 30.7903 4.8 30.7903H27.2C29.92 30.7903 32 28.8026 32 26.2032V13.971H0V26.2032ZM27.2 3.26772H24V1.73869C24 0.821269 23.36 0.209656 22.4 0.209656C21.44 0.209656 20.8 0.821269 20.8 1.73869V3.26772H11.2V1.73869C11.2 0.821269 10.56 0.209656 9.6 0.209656C8.64 0.209656 8 0.821269 8 1.73869V3.26772H4.8C2.08 3.26772 0 5.25547 0 7.85483V10.9129H32V7.85483C32 5.25547 29.92 3.26772 27.2 3.26772Z" fill="black"/>
</svg>
