<svg width="32" height="33" viewBox="0 0 32 33" fill="none" xmlns="http://www.w3.org/2000/svg">
<path d="M21.744 17.1403V23.6524C21.744 24.2284 21.68 24.7724 21.536 25.2685C20.944 27.6205 18.992 29.0925 16.304 29.0925H11.952L7.12 32.3086C6.4 32.8046 5.44 32.2766 5.44 31.4126V29.0925C3.808 29.0925 2.448 28.5485 1.504 27.6045C0.544 26.6445 0 25.2845 0 23.6524V17.1403C0 14.1002 1.888 12.0042 4.8 11.7322C5.008 11.7162 5.216 11.7002 5.44 11.7002H16.304C19.568 11.7002 21.744 13.8762 21.744 17.1403Z" fill="#0954B0"/>
<path d="M25.1998 22.2604C27.2318 22.2604 28.9438 21.5884 30.1278 20.3884C31.3278 19.2044 31.9998 17.4923 31.9998 15.4603V7.30013C31.9998 3.54006 28.9598 0.5 25.1998 0.5H11.5998C7.8398 0.5 4.7998 3.54006 4.7998 7.30013V8.50015C4.7998 8.94816 5.1518 9.30017 5.5998 9.30017H16.3038C20.6398 9.30017 24.1438 12.8042 24.1438 17.1403V21.4604C24.1438 21.9084 24.4958 22.2604 24.9438 22.2604H25.1998Z" fill="#0954B0"/>
</svg>
