<svg width="300" height="40" viewBox="0 0 300 40" fill="none" xmlns="http://www.w3.org/2000/svg">
<path d="M13.3655 11.0065C15.3065 11.0065 16.9609 11.2215 18.3287 11.6516C19.7095 12.0817 20.8363 12.6617 21.7091 13.3915C22.5949 14.1214 23.2398 14.9751 23.6436 15.9525C24.0474 16.93 24.2493 17.9662 24.2493 19.0609C24.2493 19.5171 24.1777 19.9211 24.0344 20.273C23.8911 20.6249 23.6957 20.9247 23.4482 21.1723C23.2137 21.4199 22.9271 21.6089 22.5884 21.7393C22.2497 21.8696 21.885 21.9348 21.4942 21.9348C21.1555 21.9348 20.8103 21.8761 20.4585 21.7588C20.1068 21.6415 19.7746 21.4525 19.462 21.1919C19.1494 20.9312 18.8693 20.5923 18.6218 20.1753C18.3743 19.7582 18.1854 19.2499 18.0551 18.6504C17.9509 18.2203 17.7946 17.8424 17.5861 17.5165C17.3777 17.1907 17.1367 16.917 16.8632 16.6954C16.6026 16.4608 16.3095 16.2914 15.9838 16.1871C15.6712 16.0698 15.3586 16.0112 15.0459 16.0112C14.4858 16.0112 13.9973 16.1285 13.5804 16.3631C13.1766 16.5977 12.8379 16.9431 12.5643 17.3992C12.2908 17.8424 12.0888 18.3897 11.9586 19.0414C11.8283 19.68 11.7632 20.4034 11.7632 21.2114C11.7632 24.3394 12.2321 26.6593 13.1701 28.1711C14.121 29.6699 15.6386 30.4193 17.7229 30.4193C18.3222 30.4193 18.9344 30.3411 19.5597 30.1847C20.185 30.0153 20.7647 29.8328 21.2988 29.6373C21.8329 29.4418 22.2953 29.2659 22.6861 29.1095C23.0769 28.9401 23.344 28.8553 23.4873 28.8553C23.7869 28.8553 24.0214 28.9857 24.1907 29.2463C24.3601 29.494 24.4447 29.7807 24.4447 30.1065C24.4447 30.2108 24.4382 30.3085 24.4252 30.3998C24.4252 30.491 24.4057 30.5822 24.3666 30.6735C23.9888 31.6379 23.4547 32.5307 22.7643 33.3518C22.0739 34.1598 21.2467 34.8701 20.2827 35.4827C19.3317 36.0822 18.2505 36.5514 17.039 36.8903C15.8275 37.2291 14.5118 37.3986 13.0919 37.3986C11.6329 37.3986 10.2977 37.2291 9.08617 36.8903C7.87468 36.5384 6.78043 36.0561 5.80343 35.4436C4.83944 34.818 3.9927 34.0881 3.26321 33.254C2.54673 32.4199 1.94099 31.5141 1.44597 30.5366C0.963981 29.5461 0.599231 28.5165 0.351723 27.4478C0.117241 26.366 0 25.2778 0 24.183C0 23.0752 0.123754 21.9804 0.371263 20.8986C0.618772 19.8038 0.990035 18.7677 1.48505 17.7902C1.98007 16.8127 2.59884 15.9134 3.34137 15.0924C4.08389 14.2582 4.95017 13.5414 5.94021 12.9419C6.93024 12.3293 8.04403 11.8536 9.28157 11.5148C10.5191 11.1759 11.8804 11.0065 13.3655 11.0065Z" fill="black"/>
<path d="M86.8169 13.4111C87.0384 13.2677 87.325 13.0657 87.6767 12.805C88.0414 12.5314 88.5755 12.2642 89.279 12.0035C89.9824 11.7298 90.9138 11.4952 92.0732 11.2997C93.2326 11.1042 94.7242 11.0065 96.5479 11.0065C97.9157 11.0065 99.1077 11.1694 100.124 11.4952C101.14 11.821 102.006 12.2642 102.723 12.8246C103.452 13.385 104.051 14.0497 104.52 14.8187C104.989 15.5746 105.361 16.3957 105.634 17.2819C105.908 18.1551 106.097 19.0675 106.201 20.0189C106.305 20.9703 106.357 21.9152 106.357 22.8536V23.0491C106.344 24.6 106.331 25.7991 106.318 26.6462C106.318 27.4804 106.318 28.0929 106.318 28.4839C106.318 28.8749 106.318 29.1095 106.318 29.1877C106.318 29.2529 106.318 29.2854 106.318 29.2854C106.318 29.8328 106.39 30.2629 106.533 30.5757C106.676 30.8755 106.852 31.1101 107.061 31.2795C107.282 31.4359 107.516 31.5467 107.764 31.6119C108.024 31.664 108.259 31.7292 108.467 31.8074C108.689 31.8725 108.871 31.9703 109.015 32.1006C109.158 32.2179 109.229 32.4199 109.229 32.7066C109.229 33.4495 109.041 34.0881 108.663 34.6225C108.298 35.1438 107.757 35.5804 107.041 35.9323C106.324 36.2712 105.439 36.5188 104.384 36.6752C103.341 36.8316 102.143 36.9098 100.788 36.9098C99.4724 36.9098 98.3 36.8316 97.2709 36.6752C96.2548 36.5188 95.395 36.2712 94.6916 35.9323C93.9881 35.5804 93.454 35.1438 93.0893 34.6225C92.7245 34.0881 92.5422 33.4495 92.5422 32.7066C92.5422 32.4199 92.5878 32.2179 92.679 32.1006C92.7832 31.9703 92.9069 31.8725 93.0502 31.8074C93.1935 31.7422 93.3498 31.6835 93.5192 31.6314C93.6885 31.5793 93.8448 31.4815 93.9881 31.3382C94.1314 31.1818 94.2487 30.9667 94.3399 30.693C94.4441 30.4063 94.4962 29.9957 94.4962 29.4614V21.055C94.4962 20.26 94.4441 19.5497 94.3399 18.9241C94.2487 18.2985 94.0924 17.7707 93.8709 17.3406C93.6494 16.9105 93.3498 16.5847 92.9721 16.3631C92.6073 16.1285 92.1449 16.0112 91.5847 16.0112C90.7249 16.0112 90.0997 16.2849 89.7088 16.8323C89.3311 17.3666 89.1422 18.0639 89.1422 18.9241V29.2268C89.1422 29.7872 89.1943 30.2238 89.2985 30.5366C89.4027 30.8494 89.533 31.0905 89.6893 31.26C89.8587 31.4164 90.0345 31.5271 90.2169 31.5923C90.4123 31.6575 90.5882 31.7292 90.7445 31.8074C90.9138 31.8725 91.0506 31.9703 91.1548 32.1006C91.259 32.2179 91.3111 32.4199 91.3111 32.7066C91.3111 33.4495 91.1613 34.0881 90.8617 34.6225C90.5751 35.1438 90.1192 35.5804 89.4939 35.9323C88.8816 36.2712 88.087 36.5188 87.11 36.6752C86.146 36.8316 84.9801 36.9098 83.6123 36.9098C82.2966 36.9098 81.1242 36.8316 80.0951 36.6752C79.079 36.5188 78.2192 36.2712 77.5158 35.9323C76.8123 35.5804 76.2783 35.1438 75.9135 34.6225C75.5488 34.0881 75.3664 33.4495 75.3664 32.7066C75.3664 32.4199 75.412 32.2179 75.5032 32.1006C75.6074 31.9703 75.7311 31.8725 75.8744 31.8074C76.0177 31.7422 76.174 31.6835 76.3434 31.6314C76.5258 31.5793 76.6886 31.4815 76.8319 31.3382C76.9752 31.1818 77.0924 30.9667 77.1836 30.693C77.2878 30.4063 77.3399 29.9957 77.3399 29.4614V21.055C77.3399 19.465 77.1445 18.2333 76.7537 17.3601C76.3759 16.4869 75.692 16.0503 74.702 16.0503C74.3112 16.0503 73.9399 16.122 73.5882 16.2653C73.2365 16.4087 72.9239 16.6172 72.6503 16.8909C72.3767 17.1516 72.1618 17.4644 72.0055 17.8293C71.8491 18.1942 71.771 18.5918 71.771 19.0219V29.3832C71.771 29.9175 71.8231 30.3346 71.9273 30.6344C72.0445 30.9341 72.1878 31.1622 72.3572 31.3186C72.5265 31.462 72.7089 31.5662 72.9043 31.6314C73.1127 31.6835 73.3016 31.7422 73.471 31.8074C73.6403 31.8725 73.7771 31.9703 73.8813 32.1006C73.9986 32.2179 74.0572 32.4199 74.0572 32.7066C74.0572 34.1924 73.3147 35.2676 71.8296 35.9323C70.3576 36.584 68.2342 36.9098 65.4595 36.9098C64.1178 36.9098 62.9193 36.8316 61.8641 36.6752C60.809 36.5188 59.9166 36.2712 59.1871 35.9323C58.4707 35.5804 57.917 35.1438 57.5262 34.6225C57.1484 34.0881 56.9595 33.4495 56.9595 32.7066C56.9595 32.4199 57.0312 32.2179 57.1745 32.1006C57.3178 31.9703 57.4936 31.8725 57.7021 31.8074C57.9105 31.7422 58.1385 31.6835 58.386 31.6314C58.6335 31.5793 58.8615 31.4815 59.0699 31.3382C59.2783 31.1818 59.4542 30.9667 59.5975 30.693C59.7408 30.4063 59.8124 29.9957 59.8124 29.4614V19.0219C59.8124 18.5005 59.7408 18.0965 59.5975 17.8098C59.4542 17.523 59.2783 17.308 59.0699 17.1646C58.8615 17.0082 58.6335 16.904 58.386 16.8518C58.1385 16.7997 57.9105 16.7411 57.7021 16.6759C57.4936 16.6107 57.3178 16.5195 57.1745 16.4022C57.0312 16.2719 56.9595 16.0633 56.9595 15.7766C56.9595 15.0337 57.1484 14.4016 57.5262 13.8803C57.904 13.3459 58.4511 12.9093 59.1676 12.5705C59.8971 12.2186 60.7829 11.9644 61.825 11.808C62.8672 11.6516 64.0461 11.5734 65.3618 11.5734C65.961 11.5734 66.5017 11.606 66.9837 11.6712C67.4656 11.7233 67.889 11.8015 68.2538 11.9058C68.6315 11.997 68.9572 12.1078 69.2308 12.2381C69.5043 12.3554 69.7388 12.4792 69.9342 12.6096C70.3902 12.9223 70.7093 13.2677 70.8917 13.6457C71.53 13.1635 72.2986 12.7268 73.1974 12.3359C73.966 11.997 74.9039 11.6907 76.0112 11.417C77.1185 11.1433 78.4146 11.0065 79.8997 11.0065C81.4369 11.0065 82.7981 11.228 83.9836 11.6712C85.169 12.1013 86.1135 12.6812 86.8169 13.4111Z" fill="black"/>
<path d="M140.748 13.4111C140.969 13.2677 141.256 13.0657 141.607 12.805C141.972 12.5314 142.506 12.2642 143.21 12.0035C143.913 11.7298 144.845 11.4952 146.004 11.2997C147.163 11.1042 148.655 11.0065 150.479 11.0065C151.847 11.0065 153.038 11.1694 154.055 11.4952C155.071 11.821 155.937 12.2642 156.653 12.8246C157.383 13.385 157.982 14.0497 158.451 14.8187C158.92 15.5746 159.291 16.3957 159.565 17.2819C159.838 18.1551 160.027 19.0675 160.132 20.0189C160.236 20.9703 160.288 21.9152 160.288 22.8536V23.0491C160.275 24.6 160.262 25.7991 160.249 26.6462C160.249 27.4804 160.249 28.0929 160.249 28.4839C160.249 28.8749 160.249 29.1095 160.249 29.1877C160.249 29.2529 160.249 29.2854 160.249 29.2854C160.249 29.8328 160.32 30.2629 160.464 30.5757C160.607 30.8755 160.783 31.1101 160.991 31.2795C161.213 31.4359 161.447 31.5467 161.695 31.6119C161.955 31.664 162.19 31.7292 162.398 31.8074C162.62 31.8725 162.802 31.9703 162.945 32.1006C163.089 32.2179 163.16 32.4199 163.16 32.7066C163.16 33.4495 162.971 34.0881 162.594 34.6225C162.229 35.1438 161.688 35.5804 160.972 35.9323C160.255 36.2712 159.369 36.5188 158.314 36.6752C157.272 36.8316 156.074 36.9098 154.719 36.9098C153.403 36.9098 152.231 36.8316 151.202 36.6752C150.186 36.5188 149.326 36.2712 148.622 35.9323C147.919 35.5804 147.385 35.1438 147.02 34.6225C146.655 34.0881 146.473 33.4495 146.473 32.7066C146.473 32.4199 146.519 32.2179 146.61 32.1006C146.714 31.9703 146.838 31.8725 146.981 31.8074C147.124 31.7422 147.281 31.6835 147.45 31.6314C147.619 31.5793 147.776 31.4815 147.919 31.3382C148.062 31.1818 148.18 30.9667 148.271 30.693C148.375 30.4063 148.427 29.9957 148.427 29.4614V21.055C148.427 20.26 148.375 19.5497 148.271 18.9241C148.18 18.2985 148.023 17.7707 147.802 17.3406C147.58 16.9105 147.281 16.5847 146.903 16.3631C146.538 16.1285 146.076 16.0112 145.516 16.0112C144.656 16.0112 144.03 16.2849 143.64 16.8323C143.262 17.3666 143.073 18.0639 143.073 18.9241V29.2268C143.073 29.7872 143.125 30.2238 143.229 30.5366C143.334 30.8494 143.464 31.0905 143.62 31.26C143.789 31.4164 143.965 31.5271 144.148 31.5923C144.343 31.6575 144.519 31.7292 144.675 31.8074C144.845 31.8725 144.981 31.9703 145.086 32.1006C145.19 32.2179 145.242 32.4199 145.242 32.7066C145.242 33.4495 145.092 34.0881 144.793 34.6225C144.506 35.1438 144.05 35.5804 143.425 35.9323C142.812 36.2712 142.018 36.5188 141.041 36.6752C140.077 36.8316 138.911 36.9098 137.543 36.9098C136.227 36.9098 135.055 36.8316 134.026 36.6752C133.01 36.5188 132.15 36.2712 131.447 35.9323C130.743 35.5804 130.209 35.1438 129.844 34.6225C129.48 34.0881 129.297 33.4495 129.297 32.7066C129.297 32.4199 129.343 32.2179 129.434 32.1006C129.538 31.9703 129.662 31.8725 129.805 31.8074C129.949 31.7422 130.105 31.6835 130.274 31.6314C130.457 31.5793 130.619 31.4815 130.763 31.3382C130.906 31.1818 131.023 30.9667 131.114 30.693C131.219 30.4063 131.271 29.9957 131.271 29.4614V21.055C131.271 19.465 131.075 18.2333 130.685 17.3601C130.307 16.4869 129.623 16.0503 128.633 16.0503C128.242 16.0503 127.871 16.122 127.519 16.2653C127.167 16.4087 126.855 16.6172 126.581 16.8909C126.308 17.1516 126.093 17.4644 125.936 17.8293C125.78 18.1942 125.702 18.5918 125.702 19.0219V29.3832C125.702 29.9175 125.754 30.3346 125.858 30.6344C125.975 30.9341 126.119 31.1622 126.288 31.3186C126.457 31.462 126.64 31.5662 126.835 31.6314C127.044 31.6835 127.232 31.7422 127.402 31.8074C127.571 31.8725 127.708 31.9703 127.812 32.1006C127.929 32.2179 127.988 32.4199 127.988 32.7066C127.988 34.1924 127.245 35.2676 125.76 35.9323C124.288 36.584 122.165 36.9098 119.39 36.9098C118.049 36.9098 116.85 36.8316 115.795 36.6752C114.74 36.5188 113.847 36.2712 113.118 35.9323C112.401 35.5804 111.848 35.1438 111.457 34.6225C111.079 34.0881 110.89 33.4495 110.89 32.7066C110.89 32.4199 110.962 32.2179 111.105 32.1006C111.249 31.9703 111.424 31.8725 111.633 31.8074C111.841 31.7422 112.069 31.6835 112.317 31.6314C112.564 31.5793 112.792 31.4815 113.001 31.3382C113.209 31.1818 113.385 30.9667 113.528 30.693C113.672 30.4063 113.743 29.9957 113.743 29.4614V19.0219C113.743 18.5005 113.672 18.0965 113.528 17.8098C113.385 17.523 113.209 17.308 113.001 17.1646C112.792 17.0082 112.564 16.904 112.317 16.8518C112.069 16.7997 111.841 16.7411 111.633 16.6759C111.424 16.6107 111.249 16.5195 111.105 16.4022C110.962 16.2719 110.89 16.0633 110.89 15.7766C110.89 15.0337 111.079 14.4016 111.457 13.8803C111.835 13.3459 112.382 12.9093 113.098 12.5705C113.828 12.2186 114.714 11.9644 115.756 11.808C116.798 11.6516 117.977 11.5734 119.293 11.5734C119.892 11.5734 120.432 11.606 120.914 11.6712C121.396 11.7233 121.82 11.8015 122.185 11.9058C122.562 11.997 122.888 12.1078 123.162 12.2381C123.435 12.3554 123.67 12.4792 123.865 12.6096C124.321 12.9223 124.64 13.2677 124.823 13.6457C125.461 13.1635 126.229 12.7268 127.128 12.3359C127.897 11.997 128.835 11.6907 129.942 11.417C131.049 11.1433 132.345 11.0065 133.831 11.0065C135.368 11.0065 136.729 11.228 137.914 11.6712C139.1 12.1013 140.044 12.6812 140.748 13.4111Z" fill="black"/>
<path d="M185.631 19.1C185.631 18.5657 185.56 18.1486 185.417 17.8489C185.273 17.5491 185.091 17.3275 184.869 17.1842C184.661 17.0278 184.433 16.9235 184.186 16.8714C183.938 16.8062 183.704 16.7411 183.482 16.6759C183.274 16.6107 183.098 16.5195 182.954 16.4022C182.811 16.2719 182.74 16.0633 182.74 15.7766C182.74 14.2908 183.508 13.2221 185.045 12.5705C186.582 11.9058 188.803 11.5734 191.708 11.5734C192.685 11.5734 193.506 11.6646 194.171 11.8471C194.835 12.0296 195.382 12.2837 195.812 12.6096C196.255 12.9354 196.593 13.3264 196.828 13.7825C197.075 14.2387 197.251 14.747 197.356 15.3074C197.473 15.8548 197.538 16.4413 197.551 17.0669C197.577 17.6925 197.59 18.3441 197.59 19.0219V29.5005C197.59 30.0218 197.655 30.4258 197.785 30.7126C197.929 30.9993 198.105 31.2209 198.313 31.3773C198.534 31.5206 198.762 31.6184 198.997 31.6705C199.244 31.7226 199.472 31.7813 199.681 31.8464C199.902 31.9116 200.078 32.0094 200.208 32.1397C200.352 32.257 200.423 32.459 200.423 32.7457C200.423 34.2315 199.668 35.3067 198.157 35.9714C196.659 36.6231 194.509 36.9489 191.708 36.9489C191.018 36.9489 190.406 36.8968 189.872 36.7925C189.338 36.6883 188.869 36.5514 188.465 36.382C188.074 36.2125 187.735 36.0236 187.449 35.815C187.162 35.5935 186.921 35.3654 186.726 35.1308C186.27 34.6095 185.983 34.0034 185.866 33.3127C185.189 34.0816 184.387 34.7659 183.463 35.3654C183.072 35.6261 182.629 35.8802 182.134 36.1278C181.639 36.3624 181.098 36.5775 180.512 36.773C179.926 36.9554 179.287 37.1053 178.597 37.2226C177.92 37.3399 177.197 37.3986 176.428 37.3986C174.995 37.3986 173.758 37.2226 172.715 36.8707C171.673 36.5058 170.787 36.0236 170.058 35.424C169.341 34.8245 168.762 34.1272 168.319 33.3322C167.876 32.5372 167.531 31.7031 167.283 30.8299C167.036 29.9566 166.866 29.0769 166.775 28.1907C166.697 27.2914 166.658 26.4377 166.658 25.6296V19.1978C166.658 18.6504 166.586 18.2268 166.443 17.9271C166.3 17.6143 166.117 17.3797 165.896 17.2233C165.674 17.0538 165.44 16.9431 165.192 16.8909C164.945 16.8258 164.71 16.7606 164.489 16.6954C164.268 16.6172 164.085 16.5195 163.942 16.4022C163.799 16.2719 163.727 16.0633 163.727 15.7766C163.727 14.2908 164.496 13.2221 166.033 12.5705C167.57 11.9058 169.791 11.5734 172.696 11.5734C173.986 11.5734 175.015 11.7298 175.783 12.0426C176.552 12.3554 177.138 12.7855 177.542 13.3329C177.946 13.8672 178.206 14.5059 178.323 15.2488C178.441 15.9916 178.499 16.7932 178.499 17.6534V27.3109C178.499 28.119 178.558 28.8423 178.675 29.4809C178.805 30.1065 179.014 30.6409 179.3 31.084C179.6 31.5271 179.991 31.866 180.473 32.1006C180.955 32.3222 181.554 32.4329 182.271 32.4329C182.727 32.4329 183.156 32.3613 183.56 32.2179C183.964 32.0745 184.316 31.8725 184.615 31.6119C184.915 31.3512 185.149 31.0449 185.319 30.693C185.501 30.3281 185.592 29.9306 185.592 29.5005L185.631 19.1Z" fill="black"/>
<path d="M216.954 29.3832C216.954 29.9175 217.026 30.3346 217.169 30.6344C217.313 30.9341 217.488 31.1622 217.697 31.3186C217.918 31.462 218.153 31.5662 218.4 31.6314C218.648 31.6835 218.876 31.7422 219.084 31.8074C219.306 31.8725 219.488 31.9703 219.631 32.1006C219.775 32.2179 219.846 32.4199 219.846 32.7066C219.846 34.1924 219.078 35.2676 217.541 35.9323C216.003 36.584 213.782 36.9098 210.877 36.9098C209.47 36.9098 208.226 36.8316 207.145 36.6752C206.064 36.5188 205.152 36.2712 204.41 35.9323C203.667 35.5804 203.1 35.1438 202.71 34.6225C202.332 34.0881 202.143 33.4495 202.143 32.7066C202.143 32.4199 202.215 32.2179 202.358 32.1006C202.501 31.9703 202.677 31.8725 202.885 31.8074C203.094 31.7422 203.322 31.6835 203.569 31.6314C203.817 31.5793 204.045 31.4815 204.253 31.3382C204.462 31.1818 204.638 30.9667 204.781 30.693C204.924 30.4063 204.996 29.9957 204.996 29.4614V19.0219C204.996 18.5005 204.924 18.0965 204.781 17.8098C204.638 17.523 204.462 17.308 204.253 17.1646C204.045 17.0082 203.817 16.904 203.569 16.8518C203.322 16.7997 203.094 16.7411 202.885 16.6759C202.677 16.6107 202.501 16.5195 202.358 16.4022C202.215 16.2719 202.143 16.0633 202.143 15.7766C202.143 15.0337 202.332 14.4016 202.71 13.8803C203.1 13.3459 203.667 12.9093 204.41 12.5705C205.152 12.2186 206.064 11.9644 207.145 11.808C208.226 11.6516 209.47 11.5734 210.877 11.5734C212.154 11.5734 213.17 11.6842 213.926 11.9058C214.681 12.1143 215.267 12.3489 215.684 12.6096C216.166 12.9223 216.498 13.2677 216.681 13.6457C217.358 13.1635 218.166 12.7268 219.104 12.3359C219.911 11.997 220.895 11.6907 222.054 11.417C223.227 11.1433 224.595 11.0065 226.158 11.0065C227.591 11.0065 228.822 11.1889 229.851 11.5539C230.893 11.9058 231.772 12.388 232.489 13.0005C233.218 13.6001 233.804 14.3039 234.247 15.1119C234.69 15.9069 235.029 16.7411 235.263 17.6143C235.511 18.4875 235.674 19.3737 235.752 20.273C235.843 21.1593 235.889 22.0064 235.889 22.8145V29.2854C235.889 29.8328 235.96 30.2629 236.104 30.5757C236.247 30.8755 236.429 31.1101 236.651 31.2795C236.872 31.4359 237.107 31.5467 237.354 31.6119C237.615 31.664 237.856 31.7292 238.077 31.8074C238.299 31.8725 238.481 31.9703 238.624 32.1006C238.768 32.2179 238.839 32.4199 238.839 32.7066C238.839 34.1924 238.071 35.2676 236.534 35.9323C235.009 36.584 232.795 36.9098 229.89 36.9098C228.483 36.9098 227.239 36.8316 226.158 36.6752C225.077 36.5188 224.165 36.2712 223.422 35.9323C222.68 35.5804 222.113 35.1438 221.722 34.6225C221.344 34.0881 221.155 33.4495 221.155 32.7066C221.155 32.4199 221.227 32.2179 221.37 32.1006C221.514 31.9703 221.696 31.8725 221.918 31.8074C222.139 31.7422 222.373 31.6835 222.621 31.6314C222.868 31.5793 223.103 31.4815 223.324 31.3382C223.546 31.1818 223.728 30.9667 223.872 30.693C224.015 30.4063 224.086 29.9957 224.086 29.4614V21.1137C224.086 20.3056 224.021 19.5888 223.891 18.9632C223.774 18.3246 223.565 17.7902 223.266 17.3601C222.979 16.917 222.595 16.5847 222.113 16.3631C221.631 16.1285 221.032 16.0112 220.315 16.0112C219.859 16.0112 219.429 16.0894 219.026 16.2458C218.622 16.3892 218.27 16.5977 217.97 16.8714C217.671 17.132 217.43 17.4514 217.247 17.8293C217.078 18.1942 216.993 18.5918 216.993 19.0219L216.954 29.3832Z" fill="black"/>
<path d="M243.334 4.84832C243.334 4.19667 243.444 3.62973 243.666 3.1475C243.9 2.65224 244.193 2.22866 244.545 1.87677C244.91 1.51184 245.32 1.21208 245.776 0.977485C246.245 0.729855 246.714 0.534358 247.183 0.390994C247.652 0.247629 248.101 0.149881 248.531 0.0977485C248.974 0.0325828 249.358 0 249.684 0C250.036 0 250.433 0.0325828 250.876 0.0977485C251.332 0.149881 251.794 0.247629 252.263 0.390994C252.732 0.534358 253.195 0.729855 253.651 0.977485C254.107 1.21208 254.511 1.51184 254.862 1.87677C255.227 2.22866 255.514 2.65224 255.722 3.1475C255.943 3.62973 256.054 4.19667 256.054 4.84832C256.054 5.48695 255.943 6.05389 255.722 6.54915C255.514 7.04441 255.227 7.46798 254.862 7.81988C254.511 8.17177 254.107 8.47153 253.651 8.71916C253.195 8.95376 252.732 9.14274 252.263 9.2861C251.794 9.42947 251.332 9.53373 250.876 9.5989C250.433 9.65103 250.036 9.6771 249.684 9.6771C249.358 9.6771 248.974 9.65103 248.531 9.5989C248.101 9.53373 247.652 9.42947 247.183 9.2861C246.714 9.14274 246.245 8.95376 245.776 8.71916C245.32 8.47153 244.91 8.17177 244.545 7.81988C244.193 7.46798 243.9 7.05092 243.666 6.5687C243.444 6.07344 243.334 5.49998 243.334 4.84832ZM255.448 29.4614C255.448 29.9827 255.52 30.3867 255.663 30.6735C255.807 30.9602 255.983 31.1818 256.191 31.3382C256.412 31.4815 256.647 31.5793 256.894 31.6314C257.142 31.6835 257.37 31.7422 257.578 31.8074C257.8 31.8725 257.982 31.9703 258.125 32.1006C258.269 32.2179 258.34 32.4199 258.34 32.7066C258.34 34.1924 257.572 35.2676 256.035 35.9323C254.497 36.584 252.276 36.9098 249.371 36.9098C247.965 36.9098 246.721 36.8316 245.639 36.6752C244.558 36.5188 243.646 36.2712 242.904 35.9323C242.161 35.5804 241.594 35.1438 241.204 34.6225C240.826 34.0881 240.637 33.4495 240.637 32.7066C240.637 32.4199 240.709 32.2179 240.852 32.1006C240.995 31.9703 241.171 31.8725 241.38 31.8074C241.588 31.7422 241.816 31.6835 242.063 31.6314C242.311 31.5793 242.539 31.4815 242.747 31.3382C242.956 31.1818 243.132 30.9667 243.275 30.693C243.418 30.4063 243.49 29.9957 243.49 29.4614V19.0219C243.49 18.5005 243.418 18.0965 243.275 17.8098C243.132 17.523 242.956 17.308 242.747 17.1646C242.539 17.0082 242.311 16.904 242.063 16.8518C241.816 16.7997 241.588 16.7411 241.38 16.6759C241.171 16.6107 240.995 16.5195 240.852 16.4022C240.709 16.2719 240.637 16.0633 240.637 15.7766C240.637 15.0337 240.826 14.4016 241.204 13.8803C241.594 13.3459 242.161 12.9093 242.904 12.5705C243.646 12.2186 244.558 11.9644 245.639 11.808C246.721 11.6516 247.965 11.5734 249.371 11.5734C250.778 11.5734 251.886 11.6451 252.693 11.7885C253.501 11.9318 254.107 12.1795 254.511 12.5314C254.927 12.8702 255.188 13.3329 255.292 13.9194C255.396 14.5059 255.448 15.2422 255.448 16.1285V29.4614Z" fill="black"/>
<path d="M273.992 27.1741C273.992 27.6042 274.005 28.0212 274.031 28.4253C274.057 28.8162 274.135 29.1681 274.266 29.4809C274.396 29.7937 274.598 30.0414 274.871 30.2238C275.145 30.4063 275.523 30.4975 276.005 30.4975C276.682 30.4975 277.268 30.4128 277.763 30.2434C278.271 30.0609 278.792 29.8263 279.327 29.5396C279.535 29.4223 279.73 29.3636 279.913 29.3636C280.212 29.3636 280.447 29.494 280.616 29.7546C280.799 30.0153 280.89 30.3085 280.89 30.6344C280.89 30.8559 280.857 31.0384 280.792 31.1818C280.414 32.1462 279.926 33.0129 279.327 33.7819C278.74 34.5508 278.056 35.2025 277.275 35.7368C276.506 36.2712 275.659 36.6817 274.735 36.9685C273.81 37.2552 272.82 37.3986 271.764 37.3986C270.305 37.3986 269.055 37.2161 268.013 36.8512C266.971 36.4732 266.091 35.978 265.375 35.3654C264.658 34.7398 264.085 34.023 263.655 33.2149C263.225 32.3938 262.893 31.5402 262.659 30.6539C262.437 29.7546 262.288 28.8553 262.209 27.9561C262.144 27.0437 262.112 26.1836 262.112 25.3755V15.4834H261.154C260.672 15.4834 260.294 15.3465 260.021 15.0728C259.747 14.7861 259.611 14.4733 259.611 14.1344C259.611 13.7304 259.793 13.3915 260.158 13.1178C261.682 12.0231 263.076 10.9674 264.339 9.95079C265.603 8.92118 266.691 8.00234 267.602 7.19429C268.671 6.2559 269.628 5.37617 270.475 4.55508C270.814 4.21622 271.159 3.96859 271.51 3.81219C271.862 3.64276 272.201 3.55804 272.527 3.55804C272.93 3.55804 273.269 3.69489 273.543 3.96859C273.816 4.24228 273.953 4.66586 273.953 5.23932V11.5734H278.721C278.877 11.5734 279.059 11.5865 279.268 11.6125C279.489 11.6256 279.698 11.6907 279.893 11.808C280.089 11.9253 280.251 12.1143 280.382 12.375C280.525 12.6226 280.597 12.981 280.597 13.4502C280.597 13.9585 280.531 14.3495 280.401 14.6232C280.271 14.8969 280.108 15.0989 279.913 15.2292C279.717 15.3595 279.509 15.4377 279.287 15.4638C279.079 15.4768 278.89 15.4834 278.721 15.4834H273.953L273.992 27.1741Z" fill="black"/>
<path d="M284.993 4.84832C284.993 4.19667 285.104 3.62973 285.325 3.1475C285.56 2.65224 285.853 2.22866 286.205 1.87677C286.569 1.51184 286.98 1.21208 287.436 0.977485C287.905 0.729855 288.374 0.534358 288.843 0.390994C289.312 0.247629 289.761 0.149881 290.191 0.0977485C290.634 0.0325828 291.018 0 291.344 0C291.695 0 292.093 0.0325828 292.536 0.0977485C292.992 0.149881 293.454 0.247629 293.923 0.390994C294.392 0.534358 294.854 0.729855 295.31 0.977485C295.766 1.21208 296.17 1.51184 296.522 1.87677C296.887 2.22866 297.173 2.65224 297.382 3.1475C297.603 3.62973 297.714 4.19667 297.714 4.84832C297.714 5.48695 297.603 6.05389 297.382 6.54915C297.173 7.04441 296.887 7.46798 296.522 7.81988C296.17 8.17177 295.766 8.47153 295.31 8.71916C294.854 8.95376 294.392 9.14274 293.923 9.2861C293.454 9.42947 292.992 9.53373 292.536 9.5989C292.093 9.65103 291.695 9.6771 291.344 9.6771C291.018 9.6771 290.634 9.65103 290.191 9.5989C289.761 9.53373 289.312 9.42947 288.843 9.2861C288.374 9.14274 287.905 8.95376 287.436 8.71916C286.98 8.47153 286.569 8.17177 286.205 7.81988C285.853 7.46798 285.56 7.05092 285.325 6.5687C285.104 6.07344 284.993 5.49998 284.993 4.84832ZM297.108 29.4614C297.108 29.9827 297.18 30.3867 297.323 30.6735C297.466 30.9602 297.642 31.1818 297.851 31.3382C298.072 31.4815 298.307 31.5793 298.554 31.6314C298.802 31.6835 299.029 31.7422 299.238 31.8074C299.459 31.8725 299.642 31.9703 299.785 32.1006C299.928 32.2179 300 32.4199 300 32.7066C300 34.1924 299.231 35.2676 297.694 35.9323C296.157 36.584 293.936 36.9098 291.031 36.9098C289.624 36.9098 288.38 36.8316 287.299 36.6752C286.218 36.5188 285.306 36.2712 284.563 35.9323C283.821 35.5804 283.254 35.1438 282.863 34.6225C282.486 34.0881 282.297 33.4495 282.297 32.7066C282.297 32.4199 282.368 32.2179 282.512 32.1006C282.655 31.9703 282.831 31.8725 283.039 31.8074C283.248 31.7422 283.476 31.6835 283.723 31.6314C283.971 31.5793 284.199 31.4815 284.407 31.3382C284.615 31.1818 284.791 30.9667 284.935 30.693C285.078 30.4063 285.149 29.9957 285.149 29.4614V19.0219C285.149 18.5005 285.078 18.0965 284.935 17.8098C284.791 17.523 284.615 17.308 284.407 17.1646C284.199 17.0082 283.971 16.904 283.723 16.8518C283.476 16.7997 283.248 16.7411 283.039 16.6759C282.831 16.6107 282.655 16.5195 282.512 16.4022C282.368 16.2719 282.297 16.0633 282.297 15.7766C282.297 15.0337 282.486 14.4016 282.863 13.8803C283.254 13.3459 283.821 12.9093 284.563 12.5705C285.306 12.2186 286.218 11.9644 287.299 11.808C288.38 11.6516 289.624 11.5734 291.031 11.5734C292.438 11.5734 293.545 11.6451 294.353 11.7885C295.161 11.9318 295.766 12.1795 296.17 12.5314C296.587 12.8702 296.848 13.3329 296.952 13.9194C297.056 14.5059 297.108 15.2422 297.108 16.1285V29.4614Z" fill="black"/>
<path d="M40.9864 38.1206C49.8977 38.1206 57.1228 31.7961 57.1228 23.9944C57.1228 16.1927 49.8977 9.86818 40.9864 9.86818C32.0751 9.86818 24.85 16.1927 24.85 23.9944C24.85 27.5461 26.3487 30.7952 28.8236 33.2774C28.628 35.3277 27.9825 37.5758 27.2685 39.2628C27.1091 39.6382 27.4177 40.058 27.8191 39.9934C32.3696 39.2467 35.0745 38.1005 36.2504 37.5031C37.7953 37.9154 39.3875 38.123 40.9864 38.1206Z" fill="#0099FF"/>
</svg>
