<svg width="34" height="35" viewBox="0 0 34 35" fill="none" xmlns="http://www.w3.org/2000/svg">
<path d="M10.6248 25.2917V9.70841C10.6248 8.38437 10.6248 7.72236 10.3401 7.22925C10.1536 6.90621 9.88538 6.63795 9.56234 6.45144C9.06922 6.16675 8.40722 6.16675 7.08317 6.16675C5.75913 6.16675 5.09712 6.16675 4.604 6.45144C4.28096 6.63795 4.0127 6.90621 3.8262 7.22925C3.5415 7.72236 3.5415 8.38437 3.5415 9.70841V25.2917C3.5415 26.6158 3.5415 27.2778 3.8262 27.7709C4.0127 28.0939 4.28096 28.3622 4.604 28.5487C5.09712 28.8334 5.75913 28.8334 7.08317 28.8334C8.40722 28.8334 9.06922 28.8334 9.56234 28.5487C9.88538 28.3622 10.1536 28.0939 10.3401 27.7709C10.6248 27.2778 10.6248 26.6158 10.6248 25.2917Z" fill="black" stroke="black" stroke-width="1.5" stroke-linecap="round" stroke-linejoin="round"/>
<path d="M17.7083 25.2917V13.9584C17.7083 12.6344 17.7083 11.9724 17.4236 11.4792C17.2372 11.1562 16.9688 10.8879 16.6458 10.7014C16.1527 10.4167 15.4907 10.4167 14.1667 10.4167C12.8426 10.4167 12.1806 10.4167 11.6875 10.7014C11.3645 10.8879 11.0962 11.1562 10.9097 11.4792C10.625 11.9724 10.625 12.6344 10.625 13.9584V25.2917C10.625 26.6158 10.625 27.2778 10.9097 27.7709C11.0962 28.0939 11.3645 28.3622 11.6875 28.5487C12.1806 28.8334 12.8426 28.8334 14.1667 28.8334C15.4907 28.8334 16.1527 28.8334 16.6458 28.5487C16.9688 28.3622 17.2372 28.0939 17.4236 27.7709C17.7083 27.2778 17.7083 26.6158 17.7083 25.2917Z" fill="black" stroke="black" stroke-width="1.5" stroke-linecap="round" stroke-linejoin="round"/>
<path d="M26.4628 14.3562C26.01 13.1107 25.7835 12.488 25.347 12.1217C25.0613 11.882 24.7176 11.7217 24.3503 11.6569C23.7891 11.558 23.1665 11.7848 21.9214 12.2385C20.6777 12.6916 20.0559 12.9182 19.69 13.3544C19.4506 13.6399 19.2904 13.9834 19.2256 14.3503C19.1266 14.911 19.3527 15.533 19.805 16.7769L23.1987 26.1106C23.6516 27.3561 23.878 27.9789 24.3144 28.3451C24.6002 28.5848 24.944 28.7451 25.3112 28.8099C25.8723 28.9089 26.495 28.6821 27.7402 28.2283C28.9839 27.7753 29.6057 27.5486 29.9715 27.1124C30.2109 26.827 30.3711 26.4834 30.4358 26.1165C30.5349 25.5559 30.3088 24.9339 29.8564 23.6899L26.4628 14.3562Z" fill="black" stroke="black" stroke-width="1.5" stroke-linecap="round" stroke-linejoin="round"/>
</svg>
