<svg width="33" height="33" viewBox="0 0 33 33" fill="none" xmlns="http://www.w3.org/2000/svg">
<path d="M23.6776 30.1802C23.5411 29.8671 16.1261 25.4559 16.1176 25.4501C15.0717 24.681 14.9443 23.9327 15.788 23.5029C16.5117 23.1354 17.1341 21.9509 17.6035 20.6831C17.6893 20.721 17.7789 20.729 17.8707 20.7029C19.8403 20.1269 19.8755 16.1519 18.5581 16.8538C19.7896 6.1098 4.9144 6.10447 6.14587 16.8543C4.82693 16.1509 4.8632 20.1269 6.83227 20.7029C6.92347 20.729 7.01414 20.721 7.1 20.6837C7.5688 21.9509 8.19014 23.1354 8.91387 23.5029C9.76453 23.9359 9.59654 24.6474 8.56347 25.4666C8.21894 25.7402 3.4184 28.4165 2.0632 29.3221C2.06053 29.3226 2.05573 29.3258 2.05573 29.3258H2.05733C1.49787 29.7007 1.1 30.0122 1.02587 30.1807C0.639733 31.0709 0.5 32.5002 0.5 32.5002H24.2035C24.2035 32.5002 24.0648 31.0709 23.6776 30.1802Z" fill="black"/>
<path d="M17.8575 10.0289C18.8255 11.1147 19.8911 12.9846 19.8138 15.911C20.1892 16.1921 20.5028 16.6731 20.6095 17.4187C20.8058 18.7958 20.2452 21.0518 18.4548 21.7542C17.97 22.8982 17.4404 23.7057 16.8522 24.2022H32.5007C32.5007 24.2022 32.361 22.7729 31.9748 21.8822C31.8383 21.5697 24.4234 17.1585 24.4154 17.1521C23.3684 16.3835 23.2415 15.6353 24.0852 15.2054C24.809 14.8374 25.4308 13.6534 25.9007 12.3857C25.986 12.423 26.0767 12.4315 26.1679 12.4043C28.137 11.8294 28.1727 7.85445 26.8554 8.55632C28.0612 -1.96102 13.8426 -2.18129 14.3956 7.89712C15.7311 8.27045 16.938 8.99845 17.8575 10.0289Z" fill="black"/>
</svg>
